<?xml version="1.0" encoding="iso-8859-1"?>
<!-- Generator: Adobe Illustrator 16.0.0, SVG Export Plug-In . SVG Version: 6.00 Build 0)  -->
<!DOCTYPE svg PUBLIC "-//W3C//DTD SVG 1.1//EN" "http://www.w3.org/Graphics/SVG/1.1/DTD/svg11.dtd">
<svg version="1.1" id="Capa_1" xmlns="http://www.w3.org/2000/svg" xmlns:xlink="http://www.w3.org/1999/xlink" x="0px" y="0px"
	 width="53.968px" height="53.968px" viewBox="0 0 53.968 53.968" style="enable-background:new 0 0 53.968 53.968;"
	 xml:space="preserve">
<g>
	<g>
		<path d="M29.438,21.762c0.59,1.07,3.814,1.348,4.75,1.599c5.359,1.44,11.053,3.745,16.56,4.445c4.918,0.626,2.864-5.123,2.4-7.803
			c-0.638-3.684-1.276-7.367-1.914-11.051c-0.294-1.699-0.173-4.336-1.726-5.4c-0.02-0.013-0.05-0.014-0.07-0.023
			c-0.054-0.107-0.245-0.159-0.678-0.071c-0.889,0.182-1.851,0.209-2.545,0.836c-0.644,0.579-1.286,1.158-1.93,1.737
			c-1.002,0.901-2.087-0.604-3.048-1.246c-4.385-2.922-9.453-4.366-14.671-4.581C17.828-0.157,9.37,4.698,4.212,11.485
			c-1.73,2.276-6.039,8.573-3.065,10.805c1.699,1.273,5.561,1.459,7.604,1.982c1.531,0.392,3.16,1.046,4.697,0.213
			c1.236-0.67,1.49-2.649,1.976-3.78c2.616-6.09,9.899-7.777,15.617-5.241C34.353,16.932,27.987,19.133,29.438,21.762z
			 M50.917,18.794c0.129,0.742,0.258,1.483,0.386,2.226c-0.769,1.639-1.54,3.276-2.314,4.911c-0.021,0.045-0.019,0.09-0.033,0.135
			c-0.96-0.258-1.921-0.516-2.881-0.774c0.027-0.04,0.066-0.073,0.088-0.117c1.432-2.861,2.894-5.706,4.381-8.537
			C50.667,17.355,50.792,18.075,50.917,18.794z M49.815,12.426c0.068,0.396,0.137,0.794,0.206,1.19
			c-1.963,3.657-3.87,7.345-5.733,11.056c-0.021,0.043-0.021,0.086-0.035,0.13c-0.166-0.045-0.331-0.09-0.497-0.134
			c0.026-0.039,0.065-0.069,0.088-0.111C45.954,20.576,47.929,16.519,49.815,12.426z M46.968,13.62
			c0.291-0.47,0.338-0.444,0.104,0.057c-1.638,3.493-3.349,6.95-5.143,10.364c-0.022,0.042-0.021,0.084-0.037,0.126
			c-0.196-0.053-0.393-0.105-0.588-0.158c0.026-0.045,0.064-0.081,0.085-0.13c0.356-0.879,0.72-1.756,1.085-2.63
			c0.213-0.51,0.618-1.306,0.904-1.777C44.564,17.516,45.762,15.566,46.968,13.62z M42.994,8.189
			c0.151-0.255,0.233-0.478,0.25-0.646c0.047-0.003,0.099,0.001,0.143-0.006c1.05-0.159,1.793-0.805,2.505-1.478
			C45.808,6.245,45.736,6.43,45.696,6.6c-0.911,3.843-2.275,7.57-3.787,11.258c-0.864,1.671-1.754,3.33-2.649,4.984
			c-0.105,0.177-0.21,0.354-0.314,0.531c-1.396-0.376-2.794-0.752-4.19-1.127c0.026-0.036,0.064-0.063,0.087-0.102
			C37.555,17.494,40.241,12.821,42.994,8.189z M38.952,5.205c0.633,0.395,1.252,0.81,1.861,1.238c-0.1,0.067-0.192,0.15-0.265,0.256
			c-0.97,1.41-1.934,2.822-2.895,4.236c-0.31,0.457-0.873,0.893-1.236,1.032c-0.298,0.114-0.542,0.241-0.621,0.325
			c-0.142,0.151-0.275,0.309-0.408,0.465c-0.222,0.262-0.199,0.073,0.053-0.418c1.141-2.232,2.275-4.467,3.408-6.703
			C38.917,5.5,38.947,5.352,38.952,5.205z M19.924,5.081c0.537-0.975,1.07-1.952,1.603-2.931c0.085-0.156,0.103-0.285,0.092-0.398
			c0.283-0.049,0.567-0.09,0.851-0.128c-0.147,0.12-0.28,0.247-0.373,0.381c-0.717,1.028-1.421,2.065-2.111,3.114
			C19.682,5.58,19.657,5.564,19.924,5.081z M4.008,21.893c-1.197-0.566-1.98-1.451-1.688-2.914c1.8-3.34,3.664-6.648,5.547-9.949
			c2.179-2.301,4.798-4.128,7.668-5.421c-0.093,0.102-0.182,0.205-0.247,0.304c-3.89,5.825-7.427,11.904-11.21,17.805
			C4.04,21.777,4.031,21.835,4.008,21.893z M7.864,22.671c-0.042,0.073-0.052,0.146-0.072,0.22
			c-0.683-0.117-1.424-0.251-2.141-0.433c0.095-0.082,0.184-0.171,0.25-0.273c4.118-6.388,7.922-13.005,12.187-19.292
			c0.083-0.123,0.126-0.226,0.142-0.314c0.417-0.133,0.837-0.253,1.26-0.363c-0.139,0.141-0.263,0.287-0.344,0.435
			C15.463,9.367,11.667,16.021,7.864,22.671z M21.74,13.913c-2.6,0.964-4.971,2.64-6.753,4.708
			c-0.505,0.587-2.999,5.234-2.524,5.356c-0.457-0.117-0.914-0.234-1.371-0.351c0.028-0.038,0.068-0.068,0.091-0.109
			c4.169-7.404,8.328-14.809,13.174-21.722c0.095-0.135,0.131-0.254,0.14-0.362c1.137-0.062,2.283-0.048,3.43,0.048
			c-0.147,0.129-0.278,0.273-0.353,0.442c-1.807,4.053-3.765,8.033-5.826,11.965C21.743,13.898,21.744,13.903,21.74,13.913z
			 M25.432,10.862C26.89,8,28.29,5.109,29.611,2.182c0.079-0.174,0.081-0.339,0.051-0.493c0.906,0.141,1.811,0.329,2.708,0.573
			c-0.188,0.095-0.361,0.21-0.482,0.364c-2.146,2.74-4.263,5.507-6.321,8.316C25.24,11.388,25.181,11.354,25.432,10.862z
			 M29.77,13.489c-0.002-0.001-0.004-0.001-0.006-0.002C29.923,13.234,29.925,13.235,29.77,13.489z M28.009,13.019
			c-0.02,0.031-0.021,0.06-0.036,0.09c-0.609-0.075-1.22-0.093-1.829-0.075c0.012-0.016,0.032-0.029,0.043-0.045
			c2.2-3.067,4.445-6.101,6.754-9.083c0.338-0.438,0.416-0.387,0.167,0.106C31.552,7.091,29.818,10.075,28.009,13.019z
			 M31.564,10.554c1.311-2.19,2.567-4.411,3.728-6.685c0.095-0.185,0.105-0.377,0.077-0.56c0.238,0.104,0.477,0.207,0.711,0.318
			c-0.174,0.091-0.334,0.211-0.439,0.38c-1.359,2.183-2.718,4.364-4.068,6.552C31.282,11.029,31.281,11.027,31.564,10.554z
			 M31.467,14.11c0.016-0.022,0.04-0.038,0.055-0.061c1.593-2.598,3.189-5.191,4.794-7.781c0.29-0.469,0.325-0.451,0.075,0.042
			c-1.367,2.696-2.74,5.389-4.122,8.075c-0.008,0.016-0.008,0.031-0.016,0.047C31.973,14.314,31.702,14.208,31.467,14.11z"/>
		<path d="M0.694,32.564c0.639,3.688,1.277,7.375,1.915,11.061c0.327,1.888,0.805,10.139,5.057,6.305
			c1.512-1.364,2.091-2.886,3.933-1.526c2.19,1.615,4.667,2.777,7.177,3.789c4.642,1.872,9.705,1.931,14.552,1.007
			C41.948,51.556,49,45.49,52.667,37.663c1.479-3.156,2.25-5.445-1.358-6.37c-2.74-0.701-5.481-1.402-8.221-2.104
			c-0.016-0.004-0.04,0-0.057-0.002c-0.111-0.042-0.283-0.061-0.567-0.019c-3.476,0.501-3.249,3.612-5.127,6.299
			c-2.415,3.455-7.307,5.133-11.484,4.202c-0.915-0.204-5.481-1.386-3.909-2.805c1.032-0.931,2.222-1.775,2.974-2.951
			c1.701-2.658-11.065-4.857-12.194-5.161c-2.178-0.586-9.965-4.268-12.198-1.702C-0.633,28.378,0.449,31.148,0.694,32.564z
			 M34.792,49.722c-0.276,0.762-0.555,1.521-0.831,2.282c-0.493,0.101-0.99,0.185-1.49,0.252c0.705-0.881,1.399-1.768,2.07-2.67
			C34.872,49.144,34.981,49.202,34.792,49.722z M48.27,31.747c0.962,0.246,1.924,0.493,2.886,0.739
			c0.084,0.022,0.146,0.066,0.215,0.102c-0.037,0.055-0.071,0.109-0.102,0.173c-0.087,0.184-0.174,0.366-0.26,0.552
			c-1.943,4.132-3.729,8.337-5.489,12.552c-1.749,1.763-3.73,3.157-5.858,4.21c2.822-5.918,5.647-11.833,8.558-17.704
			C48.325,32.151,48.329,31.936,48.27,31.747z M43.181,32.29c0.14-0.362,0.282-0.725,0.425-1.086c0.09-0.228,0.09-0.45,0.035-0.643
			c0.261,0.066,0.521,0.134,0.782,0.201c-0.219,0.116-0.412,0.28-0.525,0.493c-0.195,0.363-0.391,0.729-0.588,1.093
			C43.046,32.833,42.983,32.806,43.181,32.29z M40.219,41.269c1.977-3.104,3.829-6.288,5.594-9.522
			c0.116-0.213,0.125-0.424,0.07-0.61c0.317,0.081,0.635,0.162,0.953,0.243c-0.214,0.12-0.4,0.289-0.509,0.507
			c-3.179,6.397-6.253,12.852-9.33,19.303c-0.224,0.077-0.448,0.146-0.675,0.215c0.001-0.004,0.005-0.008,0.006-0.012
			c1.009-2.779,2.017-5.559,3.014-8.34C39.529,42.532,39.922,41.735,40.219,41.269z M37.372,40.727
			c0.428-0.775,0.855-1.551,1.285-2.326c0.268-0.483,0.338-0.451,0.156,0.069c-0.361,1.031-0.729,2.061-1.095,3.091
			c-0.187,0.521-0.573,1.323-0.869,1.789c-1.115,1.756-2.284,3.518-3.516,5.255c-0.318,0.45-0.376,0.415-0.121-0.074
			C34.572,45.918,35.95,43.312,37.372,40.727z M29.551,40.77c1.92-0.269,3.801-0.803,5.465-1.848
			c0.543-0.341,1.033-0.693,1.504-1.06c-0.03,0.048-0.067,0.101-0.093,0.146c-2.786,4.802-5.525,9.63-8.229,14.479
			c-1.981-0.06-3.973-0.349-5.933-0.847c0.724-0.969,1.44-1.941,2.14-2.925c1.771-2.407,3.507-4.842,5.167-7.318
			C29.779,41.096,29.745,40.876,29.551,40.77z M25.923,41.469c0.135-0.204,0.157-0.401,0.108-0.573
			c0.566,0.065,1.058,0.092,1.408,0.073c0.04-0.002,0.081-0.007,0.121-0.01c-0.123,0.153-0.282,0.375-0.447,0.632
			c-1.548,2.402-3.135,4.78-4.791,7.112c-0.6,0.816-1.204,1.628-1.809,2.438c-0.104-0.033-0.206-0.072-0.31-0.107
			c0.886-1.688,1.792-3.368,2.726-5.034C23.928,44.49,24.926,42.979,25.923,41.469z M21.793,40.091
			c0.045-0.073,0.066-0.148,0.094-0.224c0.646,0.269,1.366,0.486,2.081,0.657c-0.886,1.495-1.758,2.999-2.617,4.509
			c-0.402,0.672-0.805,1.346-1.213,2.014c-0.699,1.057-1.403,2.108-2.105,3.16c-0.649-0.277-1.289-0.588-1.922-0.916
			C18.012,46.229,19.907,43.162,21.793,40.091z M18.773,41.528c0.472-0.817,0.947-1.633,1.422-2.447
			c0.029-0.051,0.049-0.105,0.075-0.157c0.031,0.026,0.056,0.056,0.088,0.081c-0.037,0.058-0.073,0.108-0.111,0.172
			c-0.483,0.788-0.966,1.578-1.45,2.367C18.508,42.014,18.496,42.006,18.773,41.528z M23.187,34.017
			c-0.047,0.258-0.215,0.508-0.453,0.753C22.886,34.519,23.036,34.267,23.187,34.017z M19.576,32.444
			c0.164-0.251,0.172-0.506,0.069-0.714c0.863,0.181,1.76,0.418,2.452,0.803c-0.146,0.129-0.292,0.291-0.412,0.487
			c-0.246,0.399-0.491,0.801-0.732,1.204c-2.631,4.406-5.196,8.865-7.702,13.356c-0.002,0.005-0.002,0.011-0.005,0.016
			c-0.724-0.481-1.299-0.847-1.894-0.982c0.058-0.07,0.118-0.139,0.165-0.222c2.468-4.365,4.987-8.707,7.486-13.06
			C19.191,33.034,19.383,32.739,19.576,32.444z M13.09,30.72c0.117-0.206,0.128-0.412,0.08-0.599
			c1.461,0.394,2.921,0.785,4.381,1.179c0.204,0.055,0.445,0.105,0.704,0.157c-0.233,0.112-0.44,0.279-0.564,0.496
			c-0.272,0.479-0.544,0.957-0.818,1.436c-2.921,4.647-5.698,9.383-8.338,14.191c-1.167,1.092-2.701,2.997-3.102,0.678
			c-0.209-1.21-0.419-2.42-0.628-3.629C7.726,40.103,10.43,35.427,13.09,30.72z M7.835,28.689c0.182,0.049,0.364,0.098,0.546,0.146
			c0.643,0.174,1.286,0.347,1.928,0.52c-0.218,0.112-0.412,0.269-0.53,0.475c-1.936,3.386-3.864,6.775-5.776,10.173
			c-0.254-1.469-0.509-2.938-0.763-4.407c1.554-2.066,3.036-4.186,4.465-6.342C7.834,29.057,7.863,28.864,7.835,28.689z
			 M3.284,28.095c0.108-0.213,0.158-0.412,0.17-0.583c0.995,0.268,1.99,0.534,2.985,0.803c-0.214,0.11-0.411,0.26-0.539,0.455
			c-0.996,1.515-2.016,3.012-3.066,4.486c-0.07-0.402-0.14-0.807-0.209-1.21c-0.026-0.148-0.182-1.016-0.325-1.976
			C2.625,29.411,2.951,28.75,3.284,28.095z"/>
	</g>
</g>
<g>
</g>
<g>
</g>
<g>
</g>
<g>
</g>
<g>
</g>
<g>
</g>
<g>
</g>
<g>
</g>
<g>
</g>
<g>
</g>
<g>
</g>
<g>
</g>
<g>
</g>
<g>
</g>
<g>
</g>
</svg>
